<svg width="30" height="30" viewBox="0 0 30 30" fill="none" xmlns="http://www.w3.org/2000/svg">
<path fill-rule="evenodd" clip-rule="evenodd" d="M1.61086 3.45379C1.7746 2.96259 2.30552 2.69713 2.79671 2.86087L3.12786 2.97124C3.14436 2.97674 3.1608 2.98223 3.1772 2.98769C3.96016 3.24864 4.62182 3.46918 5.14211 3.71122C5.69516 3.9685 6.17502 4.28737 6.5389 4.7922C6.90276 5.29705 7.05352 5.85313 7.12271 6.45915C7.18781 7.02928 7.18778 7.72673 7.18775 8.55204V11.8753C7.18775 13.6696 7.18975 14.9209 7.31669 15.8651C7.44 16.7823 7.66556 17.2681 8.01151 17.6141C8.35747 17.9599 8.84318 18.1856 9.7604 18.3088C10.7046 18.4358 11.956 18.4378 13.7502 18.4378H22.5002C23.018 18.4378 23.4377 18.8574 23.4377 19.3753C23.4377 19.8931 23.018 20.3128 22.5002 20.3128H13.6816C11.9722 20.3128 10.5943 20.3128 9.51056 20.1671C8.38542 20.0158 7.43809 19.6922 6.68569 18.9398C5.9333 18.1874 5.60967 17.2401 5.45841 16.1149C5.31271 15.0312 5.31272 13.6533 5.31275 11.9439V8.60405C5.31275 7.7128 5.31134 7.12309 5.25981 6.67183C5.21104 6.24453 5.12585 6.03842 5.01782 5.88854C4.9098 5.73867 4.7412 5.59267 4.35125 5.41127C3.93944 5.21969 3.38044 5.03185 2.53492 4.75003L2.20379 4.63964C1.7126 4.47592 1.44714 3.94499 1.61086 3.45379Z" fill="#F2E5D8"/>
<path opacity="0.5" d="M7.18164 7.5C7.18784 7.8239 7.18784 8.17446 7.18783 8.55175L7.18782 11.875C7.18782 13.6693 7.18982 14.9206 7.31675 15.8649C7.33528 16.0026 7.35612 16.1307 7.37932 16.25H20.0279C21.2271 16.25 21.8267 16.25 22.2964 15.9404C22.766 15.6306 23.0022 15.0795 23.4746 13.9773L24.0104 12.7273C25.0222 10.3662 25.5281 9.18566 24.9724 8.34283C24.4166 7.5 23.1322 7.5 20.5636 7.5H7.18164Z" fill="#F2E5D8"/>
<path d="M9.375 22.5C10.4105 22.5 11.25 23.3395 11.25 24.375C11.25 25.4105 10.4105 26.25 9.375 26.25C8.33946 26.25 7.5 25.4105 7.5 24.375C7.5 23.3395 8.33946 22.5 9.375 22.5Z" fill="#F2E5D8"/>
<path d="M22.5 24.375C22.5 23.3394 21.6605 22.5 20.625 22.5C19.5895 22.5 18.75 23.3394 18.75 24.375C18.75 25.4105 19.5895 26.25 20.625 26.25C21.6605 26.25 22.5 25.4105 22.5 24.375Z" fill="#F2E5D8"/>
</svg>
