<?xml version="1.0" standalone="no"?>
<!DOCTYPE svg PUBLIC "-//W3C//DTD SVG 20010904//EN"
 "http://www.w3.org/TR/2001/REC-SVG-20010904/DTD/svg10.dtd">
<svg version="1.0" xmlns="http://www.w3.org/2000/svg"
 width="1024.000000pt" height="1024.000000pt" viewBox="0 0 1024.000000 1024.000000"
 preserveAspectRatio="xMidYMid meet">

<g transform="translate(0.000000,1024.000000) scale(0.100000,-0.100000)"
fill="#f2e5d7" stroke="none">
<path d="M4460 9524 c-177 -37 -376 -141 -502 -261 -72 -70 -104 -123 -128
-218 -34 -135 -40 -318 -40 -1335 0 -542 -5 -1106 -10 -1255 -10 -277 -35
-750 -46 -886 l-6 -77 -52 18 c-79 28 -212 41 -307 30 -215 -25 -397 -117
-552 -280 -138 -145 -225 -307 -282 -525 -45 -173 -57 -313 -52 -575 5 -275
11 -309 108 -705 38 -154 79 -329 90 -390 33 -182 44 -401 32 -639 -6 -116 -9
-215 -6 -222 2 -6 20 -20 39 -30 19 -10 34 -21 34 -24 0 -4 -20 -20 -44 -37
-76 -54 -81 -71 -81 -278 0 -161 2 -188 23 -255 53 -168 101 -220 287 -311
209 -102 433 -166 710 -200 126 -16 547 -16 680 0 467 56 872 212 1310 502
391 260 746 624 1054 1082 28 42 53 77 56 77 2 0 0 -12 -5 -27 -40 -121 -171
-608 -185 -686 -35 -196 -8 -354 79 -460 93 -114 185 -158 344 -165 88 -4 113
-1 174 19 197 63 357 236 504 545 134 283 165 342 244 474 245 406 398 841
460 1305 18 136 24 500 11 626 -40 361 -158 644 -355 847 -142 147 -309 230
-483 239 -108 7 -98 -8 -108 168 -61 1070 -494 2126 -1181 2877 -256 279 -506
463 -939 693 -60 32 -191 106 -290 165 -99 59 -202 119 -230 133 -114 57 -223
70 -355 41z m231 -134 c20 -6 112 -55 204 -110 92 -55 267 -154 388 -221 441
-241 702 -441 957 -734 478 -550 825 -1277 984 -2061 43 -209 86 -599 86 -773
l0 -58 -64 -6 c-76 -7 -433 -79 -529 -106 -37 -11 -67 -17 -67 -13 0 4 5 86
10 182 23 439 -45 988 -181 1460 -33 114 -147 432 -186 520 -85 191 -193 392
-275 512 -22 32 -36 63 -32 70 4 6 3 9 -2 5 -5 -3 -36 33 -69 81 -87 125 -240
305 -336 396 -46 44 -114 108 -150 143 -36 35 -69 60 -72 57 -4 -4 74 -86 171
-183 235 -232 394 -443 577 -766 188 -330 360 -814 444 -1245 72 -370 85 -521
78 -905 -3 -177 -9 -328 -12 -337 -3 -8 -28 -29 -54 -46 -106 -69 -227 -213
-299 -358 -33 -65 -77 -192 -70 -200 3 -2 33 35 69 83 132 182 265 300 421
372 205 96 481 99 723 6 147 -56 215 -66 215 -30 0 9 -11 33 -24 53 -25 41
-128 102 -196 118 -35 8 -35 8 20 15 68 9 185 -5 266 -31 179 -60 337 -212
438 -423 107 -223 147 -432 147 -768 0 -254 -23 -445 -82 -684 -86 -347 -185
-581 -385 -916 -48 -79 -142 -256 -209 -394 -168 -342 -255 -455 -412 -531
-45 -23 -71 -28 -127 -29 -90 0 -134 24 -168 93 -21 43 -23 60 -23 187 1 106
7 167 24 250 39 186 70 313 117 475 119 409 206 792 238 1048 19 145 22 560 6
692 -42 340 -185 602 -377 693 -61 29 -77 32 -159 32 -84 0 -95 -2 -165 -37
-136 -69 -227 -180 -309 -377 -16 -41 -28 -76 -26 -79 3 -2 19 25 37 59 49 99
106 177 185 256 171 173 345 184 509 31 106 -99 176 -246 221 -465 22 -105 28
-167 33 -343 14 -483 -25 -722 -244 -1480 -158 -549 -193 -717 -182 -869 l6
-74 -21 34 c-32 52 -48 115 -48 188 0 106 35 254 190 821 71 261 148 636 176
860 35 284 28 665 -16 870 -34 161 -80 258 -159 343 -64 69 -111 91 -191 91
-87 0 -146 -28 -222 -105 -153 -156 -236 -339 -369 -804 -78 -272 -89 -303
-168 -470 -124 -263 -249 -470 -386 -640 -299 -373 -589 -611 -983 -809 -344
-173 -606 -238 -1005 -252 l-172 -6 -125 82 c-118 77 -267 155 -373 195 l-47
18 127 131 c146 149 219 244 418 541 332 496 526 886 625 1258 76 288 118 711
90 912 -24 171 -110 363 -204 458 l-45 44 11 200 11 199 40 -80 c45 -89 113
-162 180 -194 23 -11 44 -18 46 -17 2 2 -24 37 -57 77 -82 99 -128 178 -159
273 -30 94 -28 -74 -20 1585 4 637 11 1227 17 1315 12 172 29 276 46 282 7 2
10 -78 8 -269 -4 -323 11 -322 26 3 12 277 15 288 98 372 138 141 277 226 427
260 37 9 110 7 146 -3z m-1118 -4005 c182 -47 331 -184 431 -396 67 -141 87
-232 93 -434 2 -97 0 -187 -5 -210 -10 -39 -10 -39 -11 25 -1 77 -21 198 -52
313 -108 403 -365 625 -668 578 -121 -18 -209 -67 -317 -175 -80 -81 -97 -104
-147 -206 -67 -137 -97 -250 -103 -385 -5 -113 2 -107 35 30 12 50 23 98 26
109 8 36 15 29 15 -16 0 -24 3 -48 7 -51 12 -12 33 15 44 57 15 55 93 210 134
266 81 110 203 200 313 229 61 17 162 15 205 -3 20 -8 37 -17 37 -19 0 -2 -25
-2 -56 1 -125 10 -249 -42 -360 -154 -127 -127 -197 -316 -198 -531 -1 -77 3
-116 12 -124 10 -11 12 -6 13 21 1 32 2 33 9 10 7 -20 8 -16 10 25 l2 50 12
-53 c17 -67 26 -76 26 -26 0 58 8 78 36 91 13 6 24 7 24 2 0 -23 18 -6 25 24
6 24 10 5 15 -83 10 -161 22 -229 107 -610 79 -357 108 -516 119 -652 l7 -85
-78 -124 c-93 -149 -254 -383 -343 -497 -61 -80 -65 -83 -100 -80 l-37 3 3
200 c6 341 -18 533 -118 920 -109 425 -124 517 -123 785 0 211 15 339 59 509
52 201 118 317 263 461 78 78 112 104 181 138 156 77 322 101 453 67z m157
-961 c-15 -181 -9 -420 15 -599 9 -66 13 -135 10 -153 -8 -45 -66 -192 -75
-192 -8 0 -18 48 -49 225 -36 202 -35 195 -13 195 27 0 32 28 25 135 -6 103
11 314 32 394 18 67 56 163 62 157 3 -3 0 -75 -7 -162z m-353 -406 c-3 -8 -6
-5 -6 6 -1 11 2 17 5 13 3 -3 4 -12 1 -19z m22 -35 c1 10 9 17 21 17 11 0 20
-2 20 -4 0 -8 79 -411 110 -564 32 -152 32 -154 15 -199 -21 -55 -28 -47 -45
57 -16 97 -63 332 -100 490 -31 136 -47 239 -31 205 8 -17 10 -18 10 -2z m198
-35 c-3 -8 -6 -5 -6 6 -1 11 2 17 5 13 3 -3 4 -12 1 -19z m3333 -393 c-25
-173 -67 -299 -166 -497 -116 -232 -298 -506 -483 -728 -85 -102 -307 -326
-411 -415 -577 -490 -1263 -746 -1935 -722 -200 7 -545 63 -545 88 0 5 5 9 10
9 6 0 22 11 35 24 14 14 27 20 30 15 11 -17 55 -10 55 9 0 9 7 26 15 36 8 11
15 29 15 41 0 19 9 22 108 33 155 17 262 35 262 44 0 5 11 8 25 8 14 0 29 8
35 20 6 11 19 20 28 20 31 0 72 24 72 43 0 14 10 17 60 17 51 0 60 3 60 18 0
10 11 29 25 42 14 13 25 19 25 13 0 -5 -3 -12 -6 -16 -10 -10 -14 -97 -5 -97
9 0 79 75 98 106 7 10 3 -3 -8 -29 -25 -59 -22 -71 15 -52 15 8 37 15 47 15
12 0 16 5 13 15 -5 12 0 14 24 9 48 -10 142 59 134 99 -2 10 3 17 12 17 33 0
106 59 106 85 0 8 9 15 20 15 13 0 20 7 20 20 0 13 7 20 20 20 13 0 20 7 20
20 0 16 7 20 33 21 17 0 26 3 20 6 -10 3 -10 8 1 19 20 19 26 18 26 -6 0 -18
7 -20 80 -20 73 0 80 -2 80 -20 0 -13 7 -20 20 -20 13 0 20 -7 20 -20 0 -13 7
-20 20 -20 13 0 20 -7 20 -20 0 -13 7 -20 20 -20 13 0 20 -7 20 -20 0 -17 7
-20 40 -20 33 0 40 -3 40 -20 0 -13 7 -20 20 -20 17 0 20 -7 20 -45 0 -48 11
-56 36 -26 10 11 24 16 35 14 29 -8 232 124 400 258 480 386 811 826 1059
1409 34 80 85 194 113 254 44 93 53 105 55 81 2 -16 -1 -65 -8 -110z m-2379
-1649 c-9 -11 -9 -15 1 -19 7 -3 3 -6 -9 -6 -21 -1 -29 -16 -24 -44 1 -5 -9
-8 -21 -6 -13 1 -40 -6 -60 -15 -21 -9 -42 -16 -48 -16 -5 0 -49 -11 -97 -25
-49 -14 -143 -37 -210 -51 -144 -29 -439 -52 -456 -35 -8 8 1 11 30 11 87 0
373 43 500 75 73 18 193 58 265 88 73 30 135 55 137 56 2 1 -2 -5 -8 -13z
m-1710 -14 c-7 -2 -18 1 -23 6 -8 8 -4 9 13 5 13 -4 18 -8 10 -11z m-25 -72
c8 0 14 -4 14 -10 0 -5 -6 -10 -14 -10 -8 0 -17 -6 -19 -12 -3 -7 -5 12 -5 42
1 33 3 42 5 23 3 -20 10 -33 19 -33z m14 -70 c0 -5 -5 -10 -11 -10 -5 0 -7 5
-4 10 3 6 8 10 11 10 2 0 4 -4 4 -10z"/>
<path d="M4507 9354 c-4 -4 27 -30 68 -58 41 -28 137 -103 215 -166 145 -119
411 -313 418 -306 8 9 -20 47 -56 73 -20 15 -82 64 -137 109 -199 161 -469
354 -495 354 -4 0 -10 -3 -13 -6z"/>
<path d="M4761 9258 c52 -39 137 -106 189 -148 111 -90 181 -140 230 -166 80
-43 364 -240 485 -337 232 -186 526 -517 720 -809 21 -32 42 -55 48 -51 6 3 7
1 3 -5 -9 -15 18 -55 29 -44 5 4 5 1 1 -6 -7 -11 48 -102 67 -110 4 -2 7 -10
7 -18 0 -9 5 -12 12 -8 7 4 8 3 4 -4 -7 -11 90 -183 106 -190 4 -2 8 -10 8
-17 0 -8 16 -41 35 -74 19 -32 35 -64 35 -69 0 -5 9 -17 20 -27 11 -10 17 -22
13 -28 -3 -5 -1 -7 4 -4 9 6 -139 323 -157 337 -3 3 -15 23 -26 45 -11 22 -35
69 -54 103 -30 56 -32 67 -23 93 7 17 7 31 2 35 -5 3 -9 14 -9 25 0 10 -4 19
-9 19 -5 0 -12 8 -14 18 -4 16 -5 16 -6 0 0 -10 -5 -18 -11 -18 -13 0 -13 33
0 46 6 6 -12 41 -51 99 -210 311 -410 539 -639 726 -131 107 -248 184 -505
332 -110 63 -263 152 -340 197 -247 146 -321 171 -174 58z m1703 -1396 c3 -5
-1 -9 -9 -9 -8 0 -12 4 -9 9 3 4 7 8 9 8 2 0 6 -4 9 -8z m36 -92 c0 -5 -2 -10
-4 -10 -3 0 -8 5 -11 10 -3 6 -1 10 4 10 6 0 11 -4 11 -10z"/>
<path d="M5404 7156 c-67 -30 -96 -116 -60 -184 22 -41 85 -97 143 -126 126
-63 365 -90 573 -67 125 15 221 51 200 76 -16 19 -82 38 -243 70 -185 37 -279
75 -416 167 -73 50 -129 78 -153 78 -7 -1 -27 -7 -44 -14z"/>
<path d="M6785 7129 c-4 -6 -5 -12 -2 -15 2 -3 7 2 10 11 7 17 1 20 -8 4z"/>
<path d="M4514 7058 c-27 -24 -62 -56 -79 -71 -79 -74 -231 -158 -346 -191
-31 -9 -65 -26 -75 -37 -18 -20 -18 -22 -1 -33 9 -7 56 -16 104 -20 312 -23
583 112 583 291 0 71 -29 103 -93 103 -38 0 -51 -6 -93 -42z"/>
<path d="M6806 7091 c-8 -13 4 -42 15 -35 5 3 9 10 9 15 0 6 -5 7 -12 3 -8 -5
-9 -2 -5 9 7 18 2 23 -7 8z"/>
<path d="M6840 6998 c0 -3 7 -21 15 -39 16 -34 16 -34 10 -4 -6 26 -25 60 -25
43z"/>
<path d="M5715 6640 c-106 -17 -182 -58 -257 -137 -156 -168 -192 -459 -83
-679 66 -134 227 -256 375 -284 30 -6 91 -10 135 -9 l80 2 3 -56 c2 -47 -4
-73 -38 -157 -53 -133 -55 -187 -6 -236 27 -27 42 -34 73 -34 48 0 75 18 99
67 15 32 19 64 20 198 0 88 5 174 9 190 5 17 32 56 60 88 66 72 114 166 122
237 l6 55 -45 -60 c-100 -136 -245 -205 -423 -205 -71 1 -78 2 -61 15 10 8 44
19 75 25 232 46 337 129 402 319 24 69 25 206 3 282 -55 187 -203 331 -386
374 -68 16 -87 17 -163 5z m65 -192 c51 -35 73 -71 78 -131 8 -105 -62 -187
-167 -195 -196 -14 -266 226 -96 329 45 28 142 26 185 -3z m278 -451 c10 -7
12 -24 9 -50 -15 -109 -188 -210 -328 -194 -101 12 -189 85 -189 157 0 76 72
91 136 29 40 -39 93 -51 158 -37 49 10 56 16 127 96 16 19 26 22 47 17 15 -4
33 -12 40 -18z m-13 -692 c3 -35 4 -72 2 -82 -3 -10 -8 -30 -11 -45 -7 -31
-36 -51 -61 -41 -14 5 -16 16 -13 57 4 50 53 176 68 176 4 0 11 -29 15 -65z"/>
<path d="M4326 6580 c-107 -38 -200 -120 -252 -222 -34 -67 -42 -96 -54 -185
-12 -94 1 -170 45 -259 60 -122 137 -194 269 -250 70 -30 74 -49 8 -41 -97 11
-182 66 -274 177 l-38 45 22 -60 c59 -164 155 -240 320 -252 243 -17 473 149
529 384 20 84 16 248 -9 328 -44 145 -132 254 -251 313 -65 32 -83 37 -165 39
-73 3 -103 -1 -150 -17z m143 -145 c70 -35 110 -123 91 -195 -22 -81 -90 -133
-176 -133 -62 0 -109 24 -141 72 -59 88 -33 195 62 252 37 23 124 25 164 4z
m295 -466 c57 -45 16 -138 -85 -194 -49 -27 -63 -30 -144 -30 -97 0 -140 15
-198 70 -49 46 -63 116 -28 135 36 19 75 11 119 -24 50 -40 87 -51 148 -41 35
5 54 16 94 56 27 27 53 49 58 49 5 0 21 -9 36 -21z"/>
<path d="M4879 5021 c-97 -31 -158 -72 -243 -162 -124 -132 -229 -333 -206
-394 13 -34 48 -49 83 -36 20 8 37 31 66 94 78 162 189 295 290 345 48 23 69
27 141 27 72 0 94 -4 143 -27 106 -50 235 -193 315 -350 45 -87 73 -108 117
-87 49 23 54 66 17 141 -116 234 -286 400 -461 452 -72 21 -191 20 -262 -3z"/>
<path d="M3404 2587 c-128 -180 -137 -194 -126 -201 14 -9 211 253 232 310 22
58 -14 21 -106 -109z"/>
<path d="M5195 1030 c-294 -5 -315 -7 -415 -32 -267 -69 -514 -93 -845 -84
-227 6 -439 28 -595 61 -64 14 -97 15 -231 5 -86 -5 -183 -15 -215 -21 -68
-13 -134 -37 -134 -50 0 -45 442 -94 1185 -131 346 -17 2133 -17 2515 0 536
24 772 43 995 83 119 22 154 40 121 64 -75 56 -531 90 -1416 105 -316 5 -593
9 -615 8 -22 -1 -179 -5 -350 -8z"/>
</g>
</svg>
