<svg version="1.1" id="Layer_1" xmlns="http://www.w3.org/2000/svg" xmlns:xlink="http://www.w3.org/1999/xlink" x="0px" y="0px"
	 width="100%" viewBox="0 0 1024 1008" enable-background="new 0 0 1024 1008" xml:space="preserve">
<path fill="#f2e5d7" opacity="1.000000" stroke="none" 
	d="
M655.067078,597.110229 
	C680.967102,545.864136 680.766724,495.116028 653.978333,444.660400 
	C650.474976,438.061829 646.165771,431.893036 642.275879,425.497131 
	C639.733887,421.317444 639.134460,417.086487 642.413879,412.970215 
	C646.089844,408.356079 651.270325,407.711243 656.099976,411.101166 
	C660.070557,413.888123 662.157776,418.126343 664.684631,422.016968 
	C680.618469,446.549713 691.019653,473.219757 694.038269,502.364502 
	C697.224548,533.127625 693.674255,563.097046 680.979126,591.644165 
	C666.643188,623.881104 645.565430,650.646790 616.202515,670.425232 
	C596.679443,683.575867 575.286621,692.602295 552.051575,696.942017 
	C549.781006,697.366089 547.412048,697.393555 545.089661,697.384155 
	C539.765869,697.362671 536.044006,694.411682 535.004395,689.564453 
	C534.119019,685.436462 536.764099,680.606506 541.447083,678.942871 
	C545.974243,677.334595 550.712402,676.309875 555.374634,675.093262 
	C599.721191,663.521179 632.183777,636.731567 655.067078,597.110229 
z"/>
<path fill="#f2e5d7" opacity="1.000000" stroke="none" 
	d="
M554.257324,489.430023 
	C561.176514,490.196533 567.069946,492.862885 572.777832,495.600739 
	C574.400269,493.317413 574.417175,491.297089 574.370117,489.324615 
	C573.909851,470.014008 573.595032,450.706848 574.610901,431.400665 
	C575.033142,423.376373 578.044495,419.657745 584.411621,419.662628 
	C591.001221,419.667664 595.296936,424.294861 595.315247,431.873993 
	C595.390076,462.853394 595.363037,493.833008 595.373291,524.812561 
	C595.376038,532.973633 595.119934,541.144592 595.433228,549.293701 
	C596.122498,567.217163 579.875732,591.191406 555.555664,593.362488 
	C537.162964,595.004395 522.798950,588.106384 511.802338,573.597290 
	C509.666199,570.778809 508.295746,567.570923 507.361084,564.163391 
	C505.852966,558.665344 507.879150,553.807983 512.640076,551.615723 
	C517.267639,549.484985 522.842468,551.068115 525.854980,555.460693 
	C526.697266,556.688782 527.403564,558.038086 527.988220,559.410156 
	C532.056213,568.957153 540.050598,572.567139 549.592957,572.611267 
	C559.517334,572.657227 567.369812,567.865845 571.673218,558.868225 
	C576.143372,549.521851 576.040466,539.149353 573.848816,529.472534 
	C570.330933,513.939941 551.113281,505.391266 536.278198,511.756592 
	C533.530273,512.935669 530.916138,514.431824 528.152100,515.567078 
	C524.121948,517.222351 520.557983,516.163940 517.784424,512.956665 
	C514.912537,509.635590 514.392212,505.835876 516.334412,501.803345 
	C517.297180,499.804504 518.685486,498.090363 520.538757,496.945129 
	C530.755920,490.631317 541.734070,487.509399 554.257324,489.430023 
z"/>
<path fill="#f2e5d7" opacity="1.000000" stroke="none" 
	d="
M367.442261,499.426056 
	C359.420593,506.404266 356.290955,515.211121 355.210358,525.186584 
	C353.360962,542.258728 355.071808,558.704834 362.407837,574.405945 
	C363.527222,576.801697 364.307404,579.394348 364.941193,581.970581 
	C366.265259,587.352478 363.971222,592.210205 359.469818,594.011780 
	C354.331329,596.068237 348.617065,594.506470 346.073639,589.729858 
	C338.478485,575.466187 333.609192,560.278381 332.788452,544.093811 
	C332.326996,534.993591 332.177338,525.839966 334.333344,516.770508 
	C339.768219,493.908051 353.696075,478.414978 375.768402,471.450653 
	C398.388672,464.313477 419.027649,470.150543 436.410492,485.923737 
	C451.791779,499.880798 457.593262,517.844177 453.147095,538.027283 
	C448.148163,560.719543 425.370392,573.859558 403.292297,568.153687 
	C398.666229,566.958130 396.123260,564.948792 396.556519,559.549622 
	C397.070435,553.145508 396.677368,546.668579 396.677368,540.343201 
	C399.417542,539.747070 400.312775,541.475525 401.522339,542.450439 
	C408.837128,548.345825 417.581970,549.596497 424.176697,545.600952 
	C430.486145,541.778259 434.419891,531.347290 433.341187,523.147583 
	C429.629791,494.935822 393.927643,477.761353 367.442261,499.426056 
z"/>
<path fill="#f2e5d7" opacity="1.000000" stroke="none" 
	d="
M379.325562,404.350037 
	C396.305115,384.605743 416.290924,369.511597 439.677460,358.755188 
	C450.319397,353.860596 461.058990,349.481049 472.633209,347.591370 
	C492.018494,344.426453 511.556488,342.518799 531.200867,343.026978 
	C547.514160,343.448975 562.992554,348.143036 578.091431,354.084351 
	C582.729675,355.909485 587.440063,357.518036 591.616821,360.417236 
	C597.463501,364.475586 599.704468,369.194397 597.511353,373.680603 
	C595.000488,378.816803 589.569946,380.641785 582.785461,377.684021 
	C573.766296,373.751984 564.633179,370.291565 555.169189,367.582184 
	C523.939880,358.641693 493.235260,359.508789 462.689056,371.054657 
	C442.656494,378.626526 424.303864,388.664703 408.819885,403.564545 
	C396.297943,415.614136 385.339600,428.963257 376.056702,443.683655 
	C373.949982,447.024414 371.911835,450.687408 367.365570,451.292603 
	C359.907349,452.285431 354.183014,445.370636 356.640656,438.078430 
	C359.397125,429.899445 365.083893,423.399750 369.837463,416.397583 
	C372.635193,412.276428 375.991974,408.534821 379.325562,404.350037 
z"/>
<path fill="#f2e5d7" opacity="1.000000" stroke="none" 
	d="
M412.367859,641.632690 
	C431.999664,659.297180 454.552399,670.567932 479.810699,676.615540 
	C482.562103,677.274231 485.350281,677.860291 488.013611,678.789001 
	C493.664734,680.759583 496.703674,685.496704 495.516815,690.113525 
	C494.085724,695.680359 488.856079,698.880615 482.770050,697.907532 
	C455.208801,693.500610 430.688141,682.203796 408.485565,665.458984 
	C397.239716,656.977539 387.369049,647.133606 378.159882,636.548767 
	C375.163513,633.104797 373.871399,629.202881 373.872498,624.644714 
	C373.880554,591.979553 373.783600,559.314392 373.768127,526.649231 
	C373.765747,521.564331 375.063599,517.064453 380.228607,514.693665 
	C384.353058,512.800598 388.053101,513.701477 391.386932,516.453979 
	C394.116791,518.707703 395.107361,521.764893 395.404694,525.261719 
	C396.608185,539.415894 395.604553,553.559082 395.459015,567.709290 
	C395.284210,584.706726 395.501007,601.708679 395.275787,618.705017 
	C395.210266,623.651428 398.157501,626.780640 400.909119,629.982361 
	C404.375214,634.015503 408.351746,637.610046 412.367859,641.632690 
z"/>
<path fill="#f2e5d7" opacity="1.000000" stroke="none" 
	d="
M633.293457,581.680847 
	C632.450256,589.702454 629.187988,593.281250 623.111755,593.306030 
	C616.857849,593.331543 612.359863,588.767944 611.787170,581.731934 
	C611.652344,580.075806 611.719177,578.401978 611.718750,576.736328 
	C611.704895,518.930481 611.697815,461.124695 611.672058,403.318878 
	C611.670715,400.312622 611.760193,397.356140 612.689636,394.441925 
	C615.072876,386.969788 623.331238,384.903656 628.964783,390.432159 
	C632.589600,393.989319 633.253479,398.509460 633.254089,403.305054 
	C633.260620,452.781433 633.297546,502.257812 633.320435,551.734192 
	C633.324951,561.562988 633.305847,571.391724 633.293457,581.680847 
z"/>
<path fill="#f2e5d7" opacity="1.000000" stroke="none" 
	d="
M480.981445,497.453857 
	C487.945312,498.532990 491.256927,501.892456 491.286407,508.385925 
	C491.398224,533.006409 491.382904,557.627808 491.305145,582.248596 
	C491.286407,588.189392 488.703766,591.199585 483.139160,592.584045 
	C478.520294,593.733215 474.137146,591.635803 471.534760,586.982422 
	C470.119080,584.451050 469.665527,581.703430 469.672729,578.815186 
	C469.729248,556.190796 469.710480,533.566223 469.795563,510.941986 
	C469.826904,502.607819 473.235046,498.483002 480.981445,497.453857 
z"/>
<path fill="#f2e5d7" opacity="1.000000" stroke="none" 
	d="
M490.379486,474.070984 
	C485.801178,479.886383 481.705536,481.529236 477.063660,479.689636 
	C472.641022,477.936920 469.571960,472.748077 469.688293,467.220154 
	C469.806915,461.583344 472.421387,457.850189 477.349121,456.280060 
	C481.833252,454.851288 485.669647,456.352234 488.617493,459.544830 
	C492.427582,463.671143 493.364197,468.526459 490.379486,474.070984 
z"/>
</svg>