<svg width="512" height="512" xmlns="http://www.w3.org/2000/svg" xml:space="preserve" enable-background="new 0 0 1024 1008" version="1.1">

 <g>
  <title>Layer 1</title>
  <g id="svg_9">
   <path id="svg_1" d="m397.24478,333.09723c25.90002,-51.24609 25.69964,-101.9942 -1.08875,-152.44983c-3.50335,-6.59857 -7.81256,-12.76736 -11.70245,-19.16327c-2.54199,-4.17969 -3.14142,-8.41064 0.138,-12.52692c3.67596,-4.61413 8.85644,-5.25897 13.6861,-1.86904c3.97058,2.78695 6.0578,7.02517 8.58465,10.9158c15.93384,24.53274 26.33502,51.20279 29.35364,80.34753c3.18628,30.76312 -0.36401,60.73255 -13.05914,89.27967c-14.33594,32.23693 -35.4137,59.00262 -64.77662,78.78106c-19.52307,13.15064 -40.91589,22.17707 -64.15094,26.51679c-2.27056,0.42407 -4.63952,0.45153 -6.96191,0.44213c-5.32379,-0.02148 -9.04565,-2.97247 -10.08526,-7.8197c-0.88538,-4.12799 1.7597,-8.95794 6.44268,-10.62158c4.52716,-1.60827 9.26532,-2.63299 13.92755,-3.84961c44.34656,-11.57208 76.80915,-38.36169 99.69245,-77.98303z" fill="#ffffff"/>
   <path id="svg_2" d="m296.43502,225.41702c6.91919,0.76651 12.81263,3.43287 18.52051,6.17072c1.62244,-2.28333 1.63935,-4.30365 1.59229,-6.27613c-0.46027,-19.3106 -0.77509,-38.61776 0.24078,-57.92394c0.42224,-8.0243 3.43359,-11.74293 9.80072,-11.73804c6.5896,0.00503 10.88532,4.63223 10.90363,12.21136c0.07483,30.9794 0.04779,61.95902 0.05804,92.93857c0.00275,8.16107 -0.25336,16.33203 0.05994,24.48114c0.68927,17.92346 -15.5575,41.89771 -39.87757,44.06879c-18.3927,1.64191 -32.75671,-5.25611 -43.75332,-19.7652c-2.13614,-2.81848 -3.50659,-6.02637 -4.44126,-9.4339c-1.50811,-5.49805 0.51807,-10.35541 5.279,-12.54767c4.62756,-2.13073 10.20239,-0.5476 13.2149,3.84497c0.84229,1.22809 1.54858,2.5774 2.13324,3.94947c4.06799,9.54699 12.06238,13.15698 21.60474,13.20111c9.92437,0.04596 17.77685,-4.74542 22.08026,-13.74304c4.47015,-9.34638 4.36725,-19.71888 2.1756,-29.3957c-3.51789,-15.53259 -22.73554,-24.08126 -37.57062,-17.71594c-2.74793,1.17908 -5.36206,2.67523 -8.1261,3.81049c-4.03015,1.65527 -7.59412,0.59686 -10.36768,-2.61041c-2.87188,-3.32108 -3.39221,-7.12079 -1.45001,-11.15333c0.96277,-1.99884 2.35108,-3.71298 4.20435,-4.85821c10.21716,-6.31381 21.19531,-9.43573 33.71856,-7.51511z" fill="#ffffff"/>
   <path id="svg_3" d="m109.61996,235.41306c-8.02167,6.97821 -11.15131,15.78506 -12.2319,25.76052c-1.8494,17.07215 -0.13855,33.51825 7.19748,49.21936c1.11938,2.39576 1.89956,4.98841 2.53335,7.56464c1.32407,5.3819 -0.96997,10.23962 -5.47137,12.0412c-5.13849,2.05646 -10.85275,0.49469 -13.39618,-4.28192c-7.59516,-14.26367 -12.46445,-29.45148 -13.28519,-45.63605c-0.46145,-9.10022 -0.61111,-18.25384 1.54489,-27.3233c5.43488,-22.86246 19.36274,-38.35553 41.43506,-45.31986c22.62027,-7.13717 43.25925,-1.30011 60.64209,14.47309c15.38129,13.95706 21.18277,31.92044 16.7366,52.10354c-4.99893,22.69226 -27.7767,35.83228 -49.85479,30.12641c-4.62607,-1.19556 -7.16904,-3.2049 -6.73578,-8.60407c0.51391,-6.40411 0.12085,-12.88104 0.12085,-19.20642c2.74017,-0.59613 3.6354,1.13232 4.84497,2.10724c7.31479,5.89538 16.05963,7.14606 22.65436,3.15051c6.30945,-3.82269 10.24319,-14.25366 9.16449,-22.45337c-3.7114,-28.21176 -39.41355,-45.38623 -65.89893,-23.72152z" fill="#ffffff"/>
   <path id="svg_4" d="m120.50326,139.33704c16.97956,-19.7443 36.96536,-34.83844 60.3519,-45.59485c10.64194,-4.89459 21.38153,-9.27414 32.95575,-11.16382c19.38528,-3.16492 38.92328,-5.07257 58.56766,-4.56439c16.31329,0.422 31.79168,5.11606 46.89056,11.05737c4.63825,1.82514 9.34863,3.43369 13.52539,6.33289c5.84668,4.05835 8.08765,8.77716 5.89453,13.26336c-2.51086,5.1362 -7.9414,6.96119 -14.72589,4.00342c-9.01916,-3.93204 -18.15228,-7.39246 -27.61627,-10.10184c-31.22931,-8.94049 -61.93393,-8.07339 -92.48013,3.47248c-20.03257,7.57187 -38.3852,17.61004 -53.86918,32.50989c-12.52194,12.04959 -23.48028,25.39871 -32.76318,40.1191c-2.10672,3.34076 -4.14487,7.00376 -8.69113,7.60895c-7.45822,0.99283 -13.18256,-5.92196 -10.72491,-13.21417c2.75647,-8.17898 8.44323,-14.67868 13.1968,-21.68085c2.79773,-4.12115 6.15451,-7.86276 9.4881,-12.04754z" fill="#ffffff"/>
   <path id="svg_5" d="m154.54556,377.61969c19.6318,17.66449 42.18454,28.93524 67.44284,34.98285c2.7514,0.65869 5.53958,1.24475 8.20291,2.17346c5.65112,1.97058 8.69006,6.7077 7.50321,11.32452c-1.4311,5.56684 -6.66074,8.7671 -12.74677,7.79401c-27.56125,-4.40692 -52.08191,-15.70373 -74.28448,-32.44855c-11.24585,-8.48144 -21.11652,-18.32537 -30.32569,-28.91021c-2.99637,-3.44397 -4.28848,-7.34589 -4.28738,-11.90406c0.00805,-32.66516 -0.0889,-65.33032 -0.10437,-97.99548c-0.00238,-5.0849 1.29547,-9.58478 6.46048,-11.95556c4.12445,-1.89307 7.82449,-0.99219 11.15832,1.76031c2.72986,2.25372 3.72043,5.31091 4.01776,8.80774c1.20349,14.15417 0.19986,28.29736 0.05433,42.44757c-0.17481,16.99744 0.04199,33.99939 -0.18323,50.99573c-0.06552,4.94641 2.88171,8.07562 5.63333,11.27734c3.46609,4.03314 7.44263,7.62769 11.45874,11.65033z" fill="#ffffff"/>
   <path id="svg_6" d="m375.47116,317.66785c-0.8432,8.0216 -4.10547,11.6004 -10.1817,11.62518c-6.25391,0.02551 -10.7519,-4.53809 -11.32459,-11.5741c-0.13483,-1.65612 -0.06799,-3.32995 -0.06842,-4.9956c-0.01386,-57.80585 -0.02094,-115.61164 -0.04669,-173.41745c-0.00135,-3.00626 0.08813,-5.96274 1.01758,-8.87695c2.38324,-7.47214 10.6416,-9.53827 16.27514,-4.00977c3.62482,3.55716 4.2887,8.0773 4.28931,12.87289c0.00653,49.47638 0.04346,98.95276 0.06634,148.42914c0.00452,9.8288 -0.01458,19.65753 -0.02697,29.94666z" fill="#ffffff"/>
   <path id="svg_7" d="m223.15915,233.44086c6.96386,1.07913 10.27548,4.4386 10.30496,10.93206c0.11181,24.62049 0.09649,49.24189 0.01873,73.86268c-0.01873,5.94079 -2.60137,8.95098 -8.16598,10.33544c-4.61887,1.14917 -9.00201,-0.94824 -11.6044,-5.60162c-1.41568,-2.53137 -1.86923,-5.27899 -1.86203,-8.16723c0.05652,-22.62439 0.03775,-45.24897 0.12283,-67.8732c0.03134,-8.33417 3.43949,-12.45899 11.18589,-13.48813z" fill="#ffffff"/>
   <path id="svg_8" d="m232.55719,210.05798c-4.57831,5.8154 -8.67395,7.45826 -13.31583,5.61866c-4.42264,-1.75272 -7.4917,-6.94156 -7.37537,-12.46949c0.11863,-5.63681 2.7331,-9.36996 7.66083,-10.94009c4.48413,-1.42877 8.32053,0.07217 11.26837,3.26477c3.81009,4.12631 4.74671,8.98163 1.762,14.52615z" fill="#ffffff"/>
  </g>
 </g>
</svg>